<svg width="41" height="36" viewBox="0 0 41 36" fill="none" xmlns="http://www.w3.org/2000/svg">
<path d="M12.0025 30.25H17.9025V28.35H13.9025V26.05H17.9025V20.15H12.0025V22.05H16.0025V24.15H12.0025V30.25ZM26.3025 30.25H28.2025V20.15H26.3025V24.15H24.2025V20.15H22.3025V26.05H26.3025V30.25ZM38.1025 16.05V33C38.1025 33.8 37.8025 34.5 37.2025 35.1C36.6025 35.7 35.9025 36 35.1025 36H5.0525C4.2525 36 3.5525 35.7 2.9525 35.1C2.3525 34.5 2.0525 33.8 2.0525 33V16.05C1.11917 15.25 0.5025 14.2667 0.2025 13.1C-0.0975 11.9333 -0.0641667 10.7667 0.3025 9.6L2.4525 2.85C2.71917 1.95 3.18583 1.25 3.8525 0.75C4.51917 0.25 5.28583 0 6.1525 0H33.8025C34.7358 0 35.5525 0.258333 36.2525 0.775C36.9525 1.29167 37.4358 1.98333 37.7025 2.85L39.9025 9.6C40.2692 10.7667 40.2942 11.9333 39.9775 13.1C39.6608 14.2667 39.0358 15.25 38.1025 16.05ZM24.6025 14.5C25.5692 14.5 26.3858 14.1833 27.0525 13.55C27.7192 12.9167 27.9858 12.15 27.8525 11.25L26.6025 3H21.6025V11.25C21.6025 12.1167 21.8858 12.875 22.4525 13.525C23.0192 14.175 23.7358 14.5 24.6025 14.5ZM15.2525 14.5C16.1858 14.5 16.9775 14.1833 17.6275 13.55C18.2775 12.9167 18.6025 12.15 18.6025 11.25V3H13.6025L12.3525 11.25C12.2192 12.1167 12.4525 12.875 13.0525 13.525C13.6525 14.175 14.3858 14.5 15.2525 14.5ZM6.1525 14.5C6.9525 14.5 7.64417 14.225 8.2275 13.675C8.81083 13.125 9.1525 12.45 9.2525 11.65L10.5525 3H5.5525L3.2525 10.3C2.91917 11.3333 3.0525 12.2917 3.6525 13.175C4.2525 14.0583 5.08583 14.5 6.1525 14.5ZM34.0025 14.5C35.0692 14.5 35.9108 14.0667 36.5275 13.2C37.1442 12.3333 37.2858 11.3667 36.9525 10.3L34.6525 3H29.6525L30.9525 11.65C31.0525 12.45 31.3942 13.125 31.9775 13.675C32.5608 14.225 33.2358 14.5 34.0025 14.5ZM5.0525 33H35.1025V17.45C35.1358 17.4833 35.0275 17.5 34.7775 17.5H34.0025C33.1692 17.5 32.3775 17.325 31.6275 16.975C30.8775 16.625 30.1358 16.0833 29.4025 15.35C28.8692 16.0167 28.2025 16.5417 27.4025 16.925C26.6025 17.3083 25.7192 17.5 24.7525 17.5C23.7525 17.5 22.8942 17.3583 22.1775 17.075C21.4608 16.7917 20.7692 16.3167 20.1025 15.65C19.6025 16.25 18.9692 16.7083 18.2025 17.025C17.4358 17.3417 16.5692 17.5 15.6025 17.5C14.5692 17.5 13.6525 17.3167 12.8525 16.95C12.0525 16.5833 11.3692 16.05 10.8025 15.35C10.0025 16.05 9.21917 16.5833 8.4525 16.95C7.68583 17.3167 6.91917 17.5 6.1525 17.5H5.4775C5.26083 17.5 5.11917 17.4833 5.0525 17.45V33Z" fill="#8DC84B"/>
</svg>
